%FSTAX23Y23*%
%MOIN*%
%SFA1B1*%

%IPPOS*%
%AMD24*
4,1,8,-0.015700,0.003500,-0.015700,-0.003500,-0.014700,-0.004500,0.014700,-0.004500,0.015700,-0.003500,0.015700,0.003500,0.014700,0.004500,-0.014700,0.004500,-0.015700,0.003500,0.0*
1,1,0.002000,-0.014700,0.003500*
1,1,0.002000,-0.014700,-0.003500*
1,1,0.002000,0.014700,-0.003500*
1,1,0.002000,0.014700,0.003500*
%
%AMD25*
4,1,8,0.003500,0.015700,-0.003500,0.015700,-0.004500,0.014700,-0.004500,-0.014700,-0.003500,-0.015700,0.003500,-0.015700,0.004500,-0.014700,0.004500,0.014700,0.003500,0.015700,0.0*
1,1,0.002000,0.003500,0.014700*
1,1,0.002000,-0.003500,0.014700*
1,1,0.002000,-0.003500,-0.014700*
1,1,0.002000,0.003500,-0.014700*
%
%ADD14R,0.041340X0.026770*%
%ADD15R,0.019680X0.010240*%
%ADD16R,0.070870X0.045280*%
%ADD17R,0.035430X0.059060*%
%ADD18R,0.059060X0.035430*%
%ADD19R,0.035430X0.035430*%
%ADD20R,0.070870X0.041340*%
%ADD21R,0.065280X0.037640*%
%ADD22R,0.043310X0.066930*%
%ADD23R,0.064960X0.043310*%
G04~CAMADD=24~8~0.0~0.0~90.6~315.0~10.0~0.0~15~0.0~0.0~0.0~0.0~0~0.0~0.0~0.0~0.0~0~0.0~0.0~0.0~90.0~314.0~90.0*
%ADD24D24*%
G04~CAMADD=25~8~0.0~0.0~90.6~315.0~10.0~0.0~15~0.0~0.0~0.0~0.0~0~0.0~0.0~0.0~0.0~0~0.0~0.0~0.0~0.0~90.6~315.0*
%ADD25D25*%
%ADD26R,0.051180X0.098430*%
%ADD27R,0.066930X0.037400*%
%ADD28R,0.037400X0.066930*%
%ADD29R,0.031500X0.031500*%
%ADD30R,0.061020X0.051180*%
%ADD31R,0.035430X0.031500*%
%ADD32R,0.041340X0.035430*%
%ADD33R,0.039370X0.053150*%
%ADD34R,0.039610X0.051510*%
%LNmblps_transreceiver_pcb_2-1*%
%LPD*%
G54D14*
X01175Y01977D03*
Y01942D03*
X01225D03*
Y01977D03*
G54D15*
X01135Y01969D03*
Y0195D03*
X01264Y0195D03*
Y01969D03*
G54D16*
X01465Y02269D03*
Y0215D03*
X016Y02274D03*
Y02155D03*
X0085Y02164D03*
Y02045D03*
X0137Y01423D03*
Y01305D03*
G54D17*
X02268Y01365D03*
X02318D03*
X02218D03*
X02168D03*
X02118D03*
X02068D03*
X02018D03*
X01968D03*
X01918D03*
X01868D03*
X01818D03*
X01768D03*
X01718D03*
X01668D03*
Y00676D03*
X01718D03*
X01768D03*
X01818D03*
X01868D03*
X01918D03*
X01968D03*
X02018D03*
X02068D03*
X02118D03*
X02168D03*
X02218D03*
X02268D03*
X02318D03*
G54D18*
X01619Y01245D03*
Y01195D03*
Y01145D03*
Y01095D03*
Y01045D03*
Y00995D03*
Y00945D03*
Y00895D03*
Y00845D03*
Y00795D03*
G54D19*
X0207Y01135D03*
Y0108D03*
Y01025D03*
X02014Y01135D03*
Y0108D03*
Y01025D03*
X01959Y01135D03*
Y0108D03*
Y01025D03*
G54D20*
X014Y0202D03*
Y01919D03*
G54D21*
X014Y01715D03*
Y01819D03*
G54D22*
X01447Y009D03*
X01345D03*
X02006Y015D03*
X01903D03*
X01447Y008D03*
X01345D03*
X01587Y0055D03*
X01485D03*
G54D23*
X00975Y01911D03*
Y02023D03*
G54D24*
X0126Y0197D03*
Y0195D03*
X0114Y0197D03*
Y0195D03*
G54D25*
X01239Y01901D03*
X01219D03*
X012D03*
X0118D03*
X0116D03*
Y02018D03*
X0118D03*
X012D03*
X01219D03*
X01239D03*
G54D26*
X01151Y0055D03*
Y01385D03*
X01064D03*
X00978D03*
X00891D03*
X00804D03*
X00718D03*
X00631D03*
X00545D03*
X01064Y0055D03*
X00978D03*
X00891D03*
X00804D03*
X00718D03*
X00631D03*
X00545D03*
G54D27*
X01485Y01425D03*
Y01314D03*
X00975Y0179D03*
Y01679D03*
G54D28*
X0247Y01475D03*
X02359D03*
G54D29*
X0071Y0027D03*
Y00329D03*
X0089Y0027D03*
Y00329D03*
X00795Y0027D03*
Y00329D03*
G54D30*
X02286Y01636D03*
X01973D03*
X02286Y01813D03*
X01973D03*
X01791Y00171D03*
X01478D03*
X01791Y00348D03*
X01478D03*
G54D31*
X01376Y01132D03*
X01455Y0117D03*
Y01095D03*
G54D32*
X00705Y00173D03*
Y00116D03*
X0089Y00175D03*
Y00117D03*
X00795Y00173D03*
Y00116D03*
G54D33*
X01254Y01715D03*
X01195D03*
G54D34*
X01218Y0222D03*
X01161D03*
M02*